<svg id="Layer_5" enable-background="new 0 0 64 64" height="512" viewBox="0 0 64 64" width="512" xmlns="http://www.w3.org/2000/svg"><g><path d="m36.896 24.473.052-.154-1.896-.638-.052.157c-.432 1.293-1.637 2.162-3 2.162s-2.568-.869-3-2.165l-.052-.154-1.896.638.052.151c.703 2.112 2.67 3.53 4.896 3.53s4.193-1.418 4.896-3.527z"/><path d="m42.55 33.782-5.854-1.626-.251-.502c3.466-.981 6.089-3.985 6.496-7.654h.059c2.206 0 4-1.794 4-4 0-.98-.368-1.868-.956-2.564.615-1.396.956-2.909.956-4.436 0-3.229-2.2-6.05-5.372-6.881-2.073-3.168-5.657-5.119-9.459-5.119h-2.836c-6.801 0-12.333 5.533-12.333 12.333 0 1.435.321 2.858.9 4.17-.554.687-.9 1.548-.9 2.497 0 2.206 1.794 4 4 4h.059c.408 3.669 3.03 6.673 6.496 7.654l-.251.502-5.854 1.626c-7.33 2.036-12.45 8.772-12.45 16.379v12.839h46v-12.839c0-7.607-5.12-14.343-12.45-16.379zm-2.673 17.011-6.323 7.728 5.009-23.375 3.2 4.8-3.884 4.854zm-17.64-10.847 3.2-4.8 5.009 23.375-6.323-7.728 1.998-5.993zm13.362-.513-.543-2.309 1.47-2.939.187.052zm-2.391-1.433 1.412 6.006-2.62 12.223-2.619-12.223 1.411-6.006zm-5.734-3.816 1.47 2.939-.543 2.309-1.114-5.197zm15.526-12.184v-4c1.103 0 2 .897 2 2s-.897 2-2 2zm-24-2c0-1.103.897-2 2-2h.047c-.028.23-.047.462-.047.7v3.3c-1.103 0-2-.897-2-2zm2.682-4h-.682c-.516 0-1.005.106-1.458.285-.356-.941-.542-1.945-.542-2.952 0-5.697 4.636-10.333 10.333-10.333h2.836c3.247 0 6.303 1.73 7.974 4.515l.227.378.433.087.097.02c2.376.475 4.1 2.578 4.1 5 0 1.114-.214 2.224-.617 3.261-.433-.161-.895-.261-1.383-.261v-.93c0-2.244-1.826-4.07-4.07-4.07-.808 0-1.588.236-2.258.684l-.965.644c-.66.439-1.429.672-2.224.672h-6.783c-2.167 0-4.054 1.215-5.018 3zm1.318 7v-4.3c0-2.04 1.66-3.7 3.7-3.7h6.783c1.191 0 2.344-.349 3.333-1.009l.966-.644c.34-.227.738-.347 1.148-.347 1.142 0 2.07.929 2.07 2.07v7.93c0 3.86-3.141 7-7 7h-4c-3.859 0-7-3.14-7-7zm7 9h4c.126 0 .248-.014.372-.019l.51 1.019-1.5 3h-2.764l-1.5-3 .51-1.019c.124.005.246.019.372.019zm-19 18.161c0-6.712 4.518-12.656 10.985-14.453l.827-.23-3.05 4.575 4.116 5.146-2.002 6.007 8.013 9.794h-11.889v-15h-2v15h-5zm42 10.839h-5v-15h-2v15h-11.889l8.012-9.793-2.002-6.007 4.116-5.146-3.05-4.575.827.23c6.468 1.796 10.986 7.74 10.986 14.452z"/><circle cx="27" cy="18" r="1"/><circle cx="37" cy="18" r="1"/><path d="m51 35h2v2h-2z"/><path d="m57.342 6.447c-.447-.892-1.344-1.447-2.342-1.447s-1.895.555-2.342 1.447l-5.276 10.553h3.618v16h2v-18h-2.382l3.829-7.658c.211-.423.895-.422 1.105 0l3.83 7.658h-2.382v44h2v-42h3.618z"/><path d="m57 61h2v2h-2z"/><path d="m11 35h2v2h-2z"/><path d="m9.553 16.342 3.829 7.658h-2.382v9h2v-7h3.618l-5.276-10.553c-.447-.892-1.344-1.447-2.342-1.447s-1.895.555-2.342 1.447l-5.276 10.553h3.618v33h2v-35h-2.382l3.829-7.658c.211-.423.895-.422 1.106 0z"/><path d="m5 61h2v2h-2z"/></g></svg>